<?xml version="1.0" encoding="UTF-8"?>
<svg id="Layer_2" data-name="Layer 2" xmlns="http://www.w3.org/2000/svg" viewBox="0 0 59.34 68.64">
  <g id="Layer_1-2" data-name="Layer 1">
    <path d="M29.44,.13c9.79,0,19.59-.08,29.38,.08,.19,13.27,.46,26.54,.52,39.81,.03,6.21-2.66,11.34-6.83,15.84-5.9,6.36-13.91,9.01-21.44,12.52-.66,.31-1.71,.36-2.35,.05-7.3-3.58-15.26-5.88-21.23-11.97C2.65,51.54-.13,46.1,.02,38.99,.25,27.85-.03,16.7,0,5.55,.02,.02,.1,.01,5.38,0,13.4,0,21.42,0,29.44,0c0,.04,0,.08,0,.12Zm5.65,31.09c-3.83,.13-4.19-.57-3.81-3.58,.89-6.98,.31-10.23-7.14-12.2-2.01-.53-3.06-.12-4.2,.76-1.26,.97-2.28,2.31-3.23,3.62-1.83,2.53-1,5.77,1.97,8.3,.18,.15,2.76-.29,2.76-.29,1,0-1.71,1.89-2,2-1.93,.72-4-1-6,2-1.71,2.57-3.56,.45-4.49-.57-.69-.75-.73-2.06-1.26-3.02-.2-.36-.46-.68-.74-.99-.5-.55-1.38-.55-1.86,.02-.4,.46-.65,2.01-.65,2.56,0,1,2.42,2.23,3,3,3,4,1.95,2.52,6,4,.9,.33,5.57,2.06,5,4-.32,1.1-2.78,4-4,4-1,0-2-1-3,0-.62,.62-.75,2,0,2,1,0,1.3,.04,2,0,3.08-.18,4.75-.42,6.55-3.08,.79-1.17,1.78-2.61,2.98-3.02,2.58-.87,3.76-2.43,6.46-2.91,.42-.07,2.85,1.36,2.87,1.51,.23,1.56,.74,3.25,.33,4.66-.25,.84-1.92,1.53-3.06,1.77-.81,.17-1.79-.69-2.72-.75-.43-.03-1.04,.67-1.33,1.18-.15,.26,.05,1.25,.42,1.21,6.5-.59,8.5,1.41,10.67-3.86,.61-1.49,.02-4.81,.83-4.73,3.67,.37,9,3,12.78,3.23,1.72,.1,3.22,3.77-.17,3.39-.38-.04-.67,.97-.69,1.5-.01,.25,.66,.87,1.08,.88,5.02,.09,4.35-.03,4.93-5.32-.93-1.68-1.78-2.04-2.93-2.68-1.39-.77-2.99-1.16-4.49-1.76-.49-.19-.89-.87-1.09-1.41-.07-.21,.49-.76,.86-.98,.56-.32,1.25-.41,1.81-.74,2.78-1.65,3.98-4.4,3.1-7.01-.85-2.53-3-3.73-6.33-3.37-1.62,.17-3.21,.71-4.83,.83-1.27,.1-2.58-.1-3.84-.33-.32-.06-.54-.72-.8-1.11,.35-.23,.68-.61,1.05-.66,.94-.12,1.92,.02,2.84-.16,.34-.07,.8-.71,.8-1.09,0-.39-.4-.92-.77-1.16-1.35-.85-3.4,.38-4.3,1.94-1.07,1.86-.51,2.54,1,3,1.9,.58,3.94,.06,6,0,1.74-.05,3.37-.34,5,0,1.95,.41,3.52,2.98,3,5-.57,2.21-3.01,2.49-4.91,1.59-3.88-1.83-7.82-2.27-11.44-1.19Z"/>
  </g>
</svg>