<?xml version="1.0" encoding="UTF-8"?>
<svg id="Layer_2" data-name="Layer 2" xmlns="http://www.w3.org/2000/svg" viewBox="0 0 64 74">
  <defs>
    <style>
      .cls-1 {
        fill: #b58733;
      }

      .cls-2 {
        fill: #85060f;
      }

      .cls-3 {
        fill: none;
        stroke: #b58733;
        stroke-miterlimit: 10;
        stroke-width: 2px;
      }
    </style>
  </defs>
  <g id="Layer_1-2" data-name="Layer 1">
    <g>
      <path class="cls-2" d="M1.52,1V42.32c0,.29,.07,.56,.11,.84,.93,5.84,3.79,12.77,9.26,17.32,6.15,5.1,18.82,12,22.4,12,2.63,0,11.31-4.99,16.02-7.93,1.16-.72,2.93-2.06,3.93-2.98,5.37-4.96,9.75-11.04,9.75-16.73V1H1.52Z"/>
      <path class="cls-1" d="M38.44,33.26c-.3,.06-.62,.04-.91-.06-.86-.29-2.61-.9-2.66-.9q-2.08,0-1.62-2.22c.14-.66,.58-1.96,.58-1.96,1.04,0,1.53-.89,1.04-1.04-.31-.1-1.04-.3-1.04-1.04,0-1.36,0,0,0-1.04v-2.09s2.08-1.04,0-1.04l-2.08-1.04-2.08-2.09c-.19-.06-2.08-1.04-2.08-1.04v1.04h-1.04c-.15,0-1.39-1.68-1.53-1.74-1,4-3,0-3,3l-1.72,1.87c-2.81,3.75-2.18,2.34-2.08,5.22,0,.14,1.18,2.09,1.04,2.09-2.08,0-1.04,0-3.13-1.04-.41-.21,1.04,2.09,3.13,2.09h1.04c1.04,0-2.08,1.04-2.08,1.04h2.57c.37,0,.73-.09,1.06-.25l1.59-.79c0,.35,.27,.73,0,1.04-.55,.62-1.87,1.04-2.08,1.04-5.21,0-3.13,1.04-5.21,4.17-1.42,1.42-1.13,1.51-2.11,.52-.59-.6-1.87-1.24-3.61-3.2-.71-.8-.53-.8-.53-2.54,0-1.26,.14-2.26,.14-2.26q-2-2-3,0c-.29,.57-.27,2.73-.27,3.3,0,1.04,1.48,2.32,2.08,3.13,3.13,4.17,1.04,2.09,4.17,5.22,.9,.9,2.57,1.02,4.34,1.04,.48,0,.87,.4,.87,.88v2.25c-1.04,1.04-1.04,2.09-2.08,3.13-1.04,0-2.08-1.04-3.13,0-.64,.64-.78,2.09,0,2.09,1.04,0,4.48,.04,5.21,0l3.13-3.13c.83-1.22,1.87-3.75,3.13-4.17,3.13,0,4.17,1.04,8.34-1.04,.43-.08,1.93,.38,1.95,.53,.24,1.63,.13,3.64,.34,4.87-.26,.88-2,1.6-3.19,1.85-.85,.18-1.87-.72-2.84-.79-.45-.03-1.08,.7-1.38,1.23-.15,.27,.05,1.3,.43,1.27,8.85-.62,6.77,1.47,9.9-3.75,.81-1.35,.28-.8,1.04-4.18,.15-.67,.82-1.09,1.49-.96,1.99,.4,2.96,1.31,5.8,2.01,2.26,.56,6.77,.95,8.34,1.04,.52,.03,1.29,.81,1.54,1.83,.8,3.35-.33,2.35-1.54,2.35h0c-.4,0-2.05,.49-2.08,1.04-.01,.26,.6,1.04,1.04,1.04,4.6,.09,5.38,.91,4.96-3.78-.23-2.6-.79-2.48-2.03-4.1-.19-.25-.55-.31-.85-.47-1.45-.8-3.11-1.22-4.68-1.83-.51-.2-.33-.73-.53-1.3-.08-.22-.1-.97,.29-1.2,.58-.34,1.31-.42,1.88-.77,2.9-1.73,4.14-4.6,3.23-7.32-.89-2.64-3.12-3.89-6.6-3.52-1.69,.18-3.34,.74-5.03,.87-1.32,.1-2.69-.1-4.01-.34-.1-.02-.26-.05-.42-.12-.72-.29-.89-1.25-.35-1.81,.2-.21,.42-.39,.58-.41,.98-.12,1.12,.18,2.08,0,.36-.07,3.12-.64,3.13-1.04,0-.41-1.45-.65-1.77-.98-2.4-.07-3.54,.24-4.48,2.02-1.04,1.98-.53,2.65,1.04,3.13,1.98,.6,4.11,.06,6.25,0,1.82-.05,3.51-.36,5.21,0,2.03,.43,4.17,2.09,3.13,5.22-.75,2.26-3.14,2.6-5.12,1.66-3.89-1.84-6.2-2.66-11.11-1.75Z"/>
      <path class="cls-3" d="M1,1V42.62c0,.29,.07,.56,.12,.85,.94,5.88,3.82,12.87,9.34,17.44,6.2,5.13,18.98,12.09,22.59,12.09,2.65,0,11.4-5.03,16.16-7.99,1.17-.73,2.95-2.07,3.96-3.01,5.41-5,9.83-11.12,9.83-16.86V1H1Z"/>
    </g>
  </g>
</svg>